<svg xmlns="http://www.w3.org/2000/svg" width="800" height="600" viewBox="0 0 800 600">
  <g stroke="#00bcd4" stroke-width="1" fill="none" opacity="1">
    <!-- Horizontal traces -->
    <line x1="0" y1="80" x2="200" y2="80"/>
    <line x1="200" y1="80" x2="200" y2="140"/>
    <line x1="200" y1="140" x2="380" y2="140"/>
    <line x1="380" y1="140" x2="380" y2="80"/>
    <line x1="380" y1="80" x2="560" y2="80"/>
    <line x1="560" y1="80" x2="560" y2="200"/>
    <line x1="560" y1="200" x2="700" y2="200"/>
    <line x1="700" y1="200" x2="700" y2="80"/>
    <line x1="700" y1="80" x2="800" y2="80"/>

    <line x1="0" y1="200" x2="100" y2="200"/>
    <line x1="100" y1="200" x2="100" y2="300"/>
    <line x1="100" y1="300" x2="300" y2="300"/>
    <line x1="300" y1="300" x2="300" y2="200"/>
    <line x1="300" y1="200" x2="480" y2="200"/>
    <line x1="480" y1="200" x2="480" y2="320"/>
    <line x1="480" y1="320" x2="620" y2="320"/>
    <line x1="620" y1="320" x2="620" y2="200"/>
    <line x1="620" y1="200" x2="800" y2="200"/>

    <line x1="0" y1="340" x2="160" y2="340"/>
    <line x1="160" y1="340" x2="160" y2="420"/>
    <line x1="160" y1="420" x2="340" y2="420"/>
    <line x1="340" y1="420" x2="340" y2="340"/>
    <line x1="340" y1="340" x2="520" y2="340"/>
    <line x1="520" y1="340" x2="520" y2="460"/>
    <line x1="520" y1="460" x2="680" y2="460"/>
    <line x1="680" y1="460" x2="680" y2="340"/>
    <line x1="680" y1="340" x2="800" y2="340"/>

    <line x1="0" y1="480" x2="220" y2="480"/>
    <line x1="220" y1="480" x2="220" y2="540"/>
    <line x1="220" y1="540" x2="440" y2="540"/>
    <line x1="440" y1="540" x2="440" y2="480"/>
    <line x1="440" y1="480" x2="600" y2="480"/>
    <line x1="600" y1="480" x2="600" y2="560"/>
    <line x1="600" y1="560" x2="800" y2="560"/>

    <!-- Vertical connectors -->
    <line x1="50" y1="0" x2="50" y2="80"/>
    <line x1="50" y1="200" x2="50" y2="340"/>
    <line x1="50" y1="480" x2="50" y2="600"/>
    <line x1="250" y1="0" x2="250" y2="140"/>
    <line x1="250" y1="200" x2="250" y2="300"/>
    <line x1="250" y1="420" x2="250" y2="480"/>
    <line x1="450" y1="0" x2="450" y2="80"/>
    <line x1="450" y1="200" x2="450" y2="320"/>
    <line x1="450" y1="420" x2="450" y2="540"/>
    <line x1="650" y1="0" x2="650" y2="200"/>
    <line x1="650" y1="320" x2="650" y2="460"/>
    <line x1="750" y1="80" x2="750" y2="200"/>
    <line x1="750" y1="340" x2="750" y2="560"/>
    <line x1="750" y1="560" x2="750" y2="600"/>

    <!-- IC chip outlines -->
    <rect x="180" y="120" width="40" height="40" rx="2"/>
    <rect x="360" y="60" width="40" height="40" rx="2"/>
    <rect x="540" y="180" width="40" height="40" rx="2"/>
    <rect x="80" y="280" width="40" height="40" rx="2"/>
    <rect x="280" y="180" width="40" height="40" rx="2"/>
    <rect x="460" y="300" width="40" height="40" rx="2"/>
    <rect x="600" y="180" width="40" height="40" rx="2"/>
    <rect x="140" y="400" width="40" height="40" rx="2"/>
    <rect x="320" y="320" width="40" height="40" rx="2"/>
    <rect x="500" y="440" width="40" height="40" rx="2"/>
    <rect x="660" y="320" width="40" height="40" rx="2"/>
    <rect x="200" y="460" width="40" height="40" rx="2"/>
    <rect x="420" y="460" width="40" height="40" rx="2"/>

    <!-- Solder pads (small circles) -->
    <circle cx="200" cy="80" r="4" fill="#00bcd4"/>
    <circle cx="380" cy="80" r="4" fill="#00bcd4"/>
    <circle cx="560" cy="80" r="4" fill="#00bcd4"/>
    <circle cx="700" cy="80" r="4" fill="#00bcd4"/>
    <circle cx="100" cy="200" r="4" fill="#00bcd4"/>
    <circle cx="300" cy="200" r="4" fill="#00bcd4"/>
    <circle cx="480" cy="200" r="4" fill="#00bcd4"/>
    <circle cx="620" cy="200" r="4" fill="#00bcd4"/>
    <circle cx="160" cy="340" r="4" fill="#00bcd4"/>
    <circle cx="340" cy="340" r="4" fill="#00bcd4"/>
    <circle cx="520" cy="340" r="4" fill="#00bcd4"/>
    <circle cx="680" cy="340" r="4" fill="#00bcd4"/>
    <circle cx="220" cy="480" r="4" fill="#00bcd4"/>
    <circle cx="440" cy="480" r="4" fill="#00bcd4"/>
    <circle cx="600" cy="480" r="4" fill="#00bcd4"/>
    <circle cx="100" cy="300" r="4" fill="#00bcd4"/>
    <circle cx="300" cy="300" r="4" fill="#00bcd4"/>
    <circle cx="480" cy="320" r="4" fill="#00bcd4"/>
    <circle cx="620" cy="320" r="4" fill="#00bcd4"/>
    <circle cx="160" cy="420" r="4" fill="#00bcd4"/>
    <circle cx="340" cy="420" r="4" fill="#00bcd4"/>
    <circle cx="520" cy="460" r="4" fill="#00bcd4"/>
    <circle cx="680" cy="460" r="4" fill="#00bcd4"/>
    <circle cx="220" cy="540" r="4" fill="#00bcd4"/>
    <circle cx="440" cy="540" r="4" fill="#00bcd4"/>
    <circle cx="600" cy="560" r="4" fill="#00bcd4"/>
  </g>
</svg>
